# xmcd
#
# Track frame offsets: 
#        150
#        14037
#        28145
#        44089
#        59037
#        77865
#        79152
#        94842
#        117145
#        134685
#        148305
#        161627
#        178130
#
# Disc length: 2553 seconds
#
# Revision: 1
# Processed by: cddbd v1.5.2PL0 Copyright (c) Steve Scherf et al.
# Submitted via: ExactAudioCopyFreeDBPlugin 1.0
#
DISCID=c809f70d
DTITLE=Preston Jan - Back Door Woman
DYEAR=1997
DGENRE=Blues
TTITLE0=This Time Around
TTITLE1=Fear
TTITLE2=Back Door Woman
TTITLE3=I Hear You Knockin
TTITLE4=Family Ties
TTITLE5=Ivan's Story
TTITLE6=Train to Nowhere
TTITLE7=Riding with the Stars
TTITLE8=Jan's Jam (Professor Longhair)
TTITLE9=Piano Boogie Woogie
TTITLE10=Everything (has a price)
TTITLE11=With the World
TTITLE12=Moth to the Flame
EXTD=
EXTT0=
EXTT1=
EXTT2=
EXTT3=
EXTT4=
EXTT5=
EXTT6=
EXTT7=
EXTT8=
EXTT9=
EXTT10=
EXTT11=
EXTT12=
PLAYORDER=
